<svg xmlns="http://www.w3.org/2000/svg" viewBox="0 0 64 64" role="img" aria-labelledby="title" data-flow-count="7">
  <title id="title">Heimdall</title>
  <g fill="none" stroke="#111" stroke-linecap="round" stroke-width="4">
    <path class="world-flow" d="M32 23V7"/>
    <path class="world-flow" d="m41 26 12-12"/>
    <path class="world-flow" d="M41 32h16"/>
    <path class="world-flow" d="m41 38 12 12"/>
    <path class="world-flow" d="M32 41v16"/>
    <path class="world-flow" d="m23 38-12 12"/>
    <path class="world-flow" d="m23 26-12-12"/>
  </g>
  <g fill="#111">
    <circle cx="32" cy="7" r="3"/>
    <circle cx="53" cy="14" r="3"/>
    <circle cx="57" cy="32" r="3"/>
    <circle cx="53" cy="50" r="3"/>
    <circle cx="32" cy="57" r="3"/>
    <circle cx="11" cy="50" r="3"/>
    <circle cx="11" cy="14" r="3"/>
    <rect x="22" y="22" width="20" height="20" rx="3"/>
  </g>
  <circle cx="32" cy="28" r="3" fill="#fff"/>
  <path fill="#fff" d="M26 38c.7-4.4 2.7-6.5 6-6.5s5.3 2.1 6 6.5Z"/>
</svg>
